#!OML:ASF X:\für Bonn\!DataBase\2005_08_12_Daniel\c3d\Daniel.ASF
:FULLY-SPECIFIED
:DEGREES
186
root 0.0678093 22.9488 0.0314061 -2.58471 -76.1812 -3.01328
lowerback 5.24445 1.34221 -0.100705
upperback -9.27644 0.924833 -5.29411
thorax -12.9731 -0.0164365 -5.90296
lowerneck 6.67942 -7.10439 0.8148
upperneck 14.7777 -10.3817 2.3526
head 3.78594 -5.27618 0.485669
rclavicle 2.14687e-014 2.06736e-014
rhumerus 97.4031 -7.65346 -90.9103
rradius 14.4734
rwrist 48.4504
rhand -10.2784 364.649
rfingers 7.12502
rthumb 15.7155 335.267
lclavicle 2.14687e-014 2.06736e-014
lhumerus -135.557 216.122 -98.2653
lradius 95.0358
lwrist 44.2447
lhand -15.0531 -2.54222
lfingers 7.12502
lthumb 11.1135 27.1435
rfemur 6.28728 1.89092 20.2136
rtibia 32.4477
rfoot 378.582 -26.4223
rtoes -5.75298
lfemur -12.1272 -16.6988 -13.9684
ltibia 44.2606
lfoot 30.8177 5.49706
ltoes 0.887596
187
root 0.0691355 22.9037 0.0331565 -2.33359 -76.4119 -3.20069
lowerback 5.00447 1.38124 -0.0183878
upperback -9.17036 1.00416 -5.28759
thorax -12.6881 0.0253181 -5.93628
lowerneck 6.89129 -7.05967 0.898299
upperneck 14.7179 -10.356 2.66738
head 3.74319 -5.25608 0.584348
rclavicle -3.81667e-014 -6.36111e-015
rhumerus 98.3577 -6.92262 -94.7455
rradius 12.5847
rwrist 52.4119
rhand -4.94259 364.191
rfingers 7.12502
rthumb 20.8486 335.291
lclavicle -3.81667e-014 -6.36111e-015
lhumerus -135.886 215.915 -98.282
lradius 94.8989
lwrist 43.9919
lhand -14.3678 -2.42686
lfingers 7.12502
lthumb 11.7744 27.2222
rfemur 5.75423 1.93964 20.0233
rtibia 32.738
rfoot 378.999 -25.89
rtoes -6.2434
lfemur -12.3914 -16.4822 -13.8054
ltibia 44.3158
lfoot 30.9062 5.61918
ltoes 1.49919
188
root 0.0686853 22.8499 0.0351786 -2.393 -76.6684 -3.10279
lowerback 4.814 1.4244 -0.00368181
upperback -9.05782 1.07957 -5.28278
thorax -12.4289 0.0711729 -5.93404
lowerneck 7.12917 -6.99982 0.941086
upperneck 14.6495 -10.3116 2.99759
head 3.69595 -5.22932 0.69604
rclavicle 3.49861e-014 0
rhumerus 99.1665 -6.02351 -99.2301
rradius 10.9989
rwrist 57.1127
rhand -0.132118 364.052
rfingers 7.12502
rthumb 25.4638 335.734
lclavicle 3.49861e-014 0
lhumerus -136.219 215.722 -98.2681
lradius 94.7719
lwrist 43.6598
lhand -13.8028 -2.35842
lfingers 7.12502
lthumb 12.3192 27.2587
rfemur 5.24704 2.07821 19.7647
rtibia 32.9867
rfoot 379.683 -25.1913
rtoes -6.88048
lfemur -12.5612 -16.2666 -13.7398
ltibia 44.2972
lfoot 30.9452 5.72628
ltoes 2.09984
189
root 0.0667471 22.7895 0.0367429 -2.87249 -76.9307 -2.62843
lowerback 4.71324 1.47009 -0.0629551
upperback -8.93157 1.14411 -5.31251
thorax -12.213 0.115335 -5.92987
lowerneck 7.32541 -6.9535 1.05937
upperneck 14.5823 -10.273 3.25715
head 3.64764 -5.2033 0.770737
rclavicle 1.11319e-014 3.33958e-014
rhumerus 99.3446 -5.78785 -99.5252
rradius 9.72823
rwrist 57.7313
rhand 4.06481 363.39
rfingers 7.12502
rthumb 29.4776 335.709
lclavicle 1.11319e-014 3.33958e-014
lhumerus -136.463 215.559 -98.33
lradius 94.6231
lwrist 43.263
lhand -13.4772 -2.30439
lfingers 7.12502
lthumb 12.6332 27.2936
rfemur 4.80634 2.24351 19.4069
rtibia 33.186
rfoot 380.406 -24.4587
rtoes -7.45443
lfemur -12.6291 -16.0591 -13.7838
ltibia 44.2087
lfoot 30.9493 5.8211
ltoes 2.54753
190
root 0.0648687 22.7168 0.0384874 -3.66996 -77.2184 -1.94095
lowerback 4.76042 1.51295 -0.146525
upperback -8.78164 1.20002 -5.34775
thorax -12.0634 0.156177 -5.92261
lowerneck 7.50916 -6.89221 1.1569
upperneck 14.5302 -10.2157 3.51677
head 3.6079 -5.16911 0.848075
rclavicle 1.82882e-014 4.29375e-014
rhumerus 99.193 -5.65778 -99.8573
rradius 9.05196
rwrist 58.3186
rhand 7.73196 363.122
rfingers 7.12502
rthumb 32.9721 336.116
lclavicle 1.82882e-014 4.29375e-014
lhumerus -136.631 215.374 -98.4111
lradius 94.4164
lwrist 42.8069
lhand -13.2561 -2.26604
lfingers 7.12502
lthumb 12.8464 27.3186
rfemur 4.52689 2.5095 19.0066
rtibia 33.2955
rfoot 380.794 -23.9917
rtoes -7.32217
lfemur -12.5513 -15.8552 -13.9134
ltibia 44.0857
lfoot 30.9058 5.82929
ltoes 2.87537
191
root 0.0634631 22.6293 0.0386654 -4.72162 -77.5128 -1.09384
lowerback 4.94099 1.55922 -0.253087
upperback -8.60494 1.25605 -5.38941
thorax -11.9662 0.198131 -5.91464
lowerneck 7.70691 -6.83007 1.2351
upperneck 14.4448 -10.1536 3.77789
head 3.55492 -5.13414 0.930239
rclavicle 1.27222e-014 -1.59028e-015
rhumerus 98.8782 -5.61836 -100.205
rradius 8.6882
rwrist 58.974
rhand 10.5017 363.282
rfingers 7.12502
rthumb 35.6021 336.868
lclavicle 1.27222e-014 -1.59028e-015
lhumerus -136.809 215.222 -98.4574
lradius 94.1958
lwrist 42.2938
lhand -13.1627 -2.32501
lfingers 7.12502
lthumb 12.9364 27.254
rfemur 4.40388 2.89928 18.6064
rtibia 33.287
rfoot 380.866 -23.7085
rtoes -7.16223
lfemur -12.3522 -15.6998 -14.1051
ltibia 43.9506
lfoot 30.7502 5.81554
ltoes 2.83997
192
root 0.0624058 22.5264 0.0377296 -6.12351 -77.8111 0.0207129
lowerback 5.24721 1.59935 -0.424546
upperback -8.40554 1.29439 -5.42788
thorax -11.924 0.236624 -5.86895
lowerneck 7.92759 -6.77049 1.32928
upperneck 14.3598 -10.0846 3.9715
head 3.49247 -5.09755 0.98876
rclavicle 4.21423e-014 -1.74931e-014
rhumerus 98.4224 -5.61832 -100.568
rradius 8.60559
rwrist 59.6981
rhand 12.2276 363.784
rfingers 7.12502
rthumb 37.236 337.781
lclavicle 4.21423e-014 -1.74931e-014
lhumerus -137.076 215.036 -98.4491
lradius 94.0429
lwrist 41.6874
lhand -13.0942 -2.46624
lfingers 7.12502
lthumb 13.0024 27.1086
rfemur 4.43621 3.36378 18.1674
rtibia 33.1372
rfoot 380.68 -23.5585
rtoes -7.39309
lfemur -12.0623 -15.5611 -14.3671
ltibia 43.8207
lfoot 30.4897 5.82672
ltoes 2.57352
193
root 0.0619839 22.4103 0.0363459 -7.72042 -78.1064 1.24416
lowerback 5.66839 1.64441 -0.592263
upperback -8.18318 1.33621 -5.47335
thorax -11.9263 0.275207 -5.83879
lowerneck 8.20395 -6.72519 1.41341
upperneck 14.2141 -10.0252 4.15133
head 3.39874 -5.06859 1.0475
rclavicle -1.19271e-014 9.54166e-015
rhumerus 97.8757 -5.69701 -100.94
rradius 8.66835
rwrist 60.4951
rhand 12.6515 364.479
rfingers 7.12502
rthumb 37.6366 338.581
lclavicle -1.19271e-014 9.54166e-015
lhumerus -137.442 214.867 -98.3864
lradius 94.0098
lwrist 41.037
lhand -13.0882 -2.59247
lfingers 7.12502
lthumb 13.0082 26.982
rfemur 4.60974 3.9237 17.7397
rtibia 32.8526
rfoot 380.3 -23.5065
rtoes -7.51526
lfemur -11.6864 -15.4608 -14.6683
ltibia 43.6835
lfoot 30.075 5.78298
ltoes 1.69063
194
root 0.0625761 22.2808 0.0364197 -9.31389 -78.4073 2.4386
lowerback 6.16054 1.6945 -0.726062
upperback -7.97216 1.38528 -5.50892
thorax -11.9844 0.312918 -5.82332
lowerneck 8.45765 -6.68815 1.44823
upperneck 14.1239 -9.98078 4.29909
head 3.32991 -5.04953 1.10161
rclavicle 5.56597e-015 4.6118e-014
rhumerus 97.3073 -5.83671 -101.303
rradius 8.74419
rwrist 61.3903
rhand 11.8183 365.448
rfingers 7.12502
rthumb 36.8489 339.344
lclavicle 5.56597e-015 4.6118e-014
lhumerus -137.799 214.681 -98.3155
lradius 93.9708
lwrist 40.4276
lhand -13.1574 -2.74685
lfingers 7.12502
lthumb 12.9415 26.8318
rfemur 4.82779 4.49964 17.335
rtibia 32.4593
rfoot 379.89 -23.4155
rtoes -6.49861
lfemur -11.2786 -15.3486 -14.9513
ltibia 43.5162
lfoot 29.4688 5.82794
ltoes 0.686859
195
root 0.0636129 22.1406 0.0372836 -11.0015 -78.6964 3.66974
lowerback 6.7219 1.73053 -0.843867
upperback -7.7315 1.41587 -5.54269
thorax -12.0526 0.340673 -5.81471
lowerneck 8.6663 -6.66131 1.55128
upperneck 14.0152 -9.92926 4.32943
head 3.25075 -5.02502 1.10504
rclavicle -3.02153e-014 4.29375e-014
rhumerus 96.798 -6.00125 -101.695
rradius 8.76179
rwrist 62.362
rhand 9.86762 366.494
rfingers 7.12502
rthumb 35.0008 339.938
lclavicle -3.02153e-014 4.29375e-014
lhumerus -138.104 214.457 -98.2735
lradius 93.9672
lwrist 39.8474
lhand -13.2266 -2.92024
lfingers 7.12502
lthumb 12.8748 26.6627
rfemur 5.11196 5.11997 16.9519
rtibia 32.0011
rfoot 379.369 -23.3684
rtoes -5.64293
lfemur -10.806 -15.2984 -15.253
ltibia 43.3144
lfoot 28.6787 6.01672
ltoes -0.535409
196
root 0.0657644 21.988 0.0401553 -12.5653 -78.9873 4.79425
lowerback 7.27421 1.77313 -0.891066
upperback -7.49085 1.46275 -5.58155
thorax -12.1118 0.369606 -5.85492
lowerneck 8.7812 -6.6782 1.71311
upperneck 13.9779 -9.92191 4.19868
head 3.20034 -5.01998 1.0417
rclavicle 2.78299e-014 -3.81667e-014
rhumerus 96.1964 -6.21965 -102.081
rradius 8.92956
rwrist 63.3564
rhand 7.15893 367.545
rfingers 7.12502
rthumb 32.427 340.426
lclavicle 2.78299e-014 -3.81667e-014
lhumerus -138.345 214.244 -98.251
lradius 93.97
lwrist 39.3025
lhand -13.3807 -3.04299
lfingers 7.12502
lthumb 12.7262 26.5492
rfemur 5.33155 5.71254 16.5915
rtibia 31.5387
rfoot 378.771 -23.3253
rtoes -5.19271
lfemur -10.3496 -15.221 -15.5116
ltibia 43.0723
lfoot 27.8093 6.24412
ltoes -1.71559
